<svg xmlns="http://www.w3.org/2000/svg" xmlns:xlink="http://www.w3.org/1999/xlink" version="1.0" x="0" y="0" width="2400" height="2340.418610442214" viewBox="133.2800006866455 89.19163703918457 73.4399299621582 71.61674118041992" preserveAspectRatio="xMidYMid meet" color-interpolation-filters="sRGB"><g><defs><linearGradient id="92" x1="0%" y1="0%" x2="100%" y2="0%"><stop offset="0%" stop-color="#fa71cd"></stop> <stop offset="100%" stop-color="#9b59b6"></stop></linearGradient><linearGradient id="93" x1="0%" y1="0%" x2="100%" y2="0%"><stop offset="0%" stop-color="#f9d423"></stop> <stop offset="100%" stop-color="#f83600"></stop></linearGradient><linearGradient id="94" x1="0%" y1="0%" x2="100%" y2="0%"><stop offset="0%" stop-color="#0064d2"></stop> <stop offset="100%" stop-color="#1cb0f6"></stop></linearGradient><linearGradient id="95" x1="0%" y1="0%" x2="100%" y2="0%"><stop offset="0%" stop-color="#f00978"></stop> <stop offset="100%" stop-color="#3f51b1"></stop></linearGradient><linearGradient id="96" x1="0%" y1="0%" x2="100%" y2="0%"><stop offset="0%" stop-color="#7873f5"></stop> <stop offset="100%" stop-color="#ec77ab"></stop></linearGradient><linearGradient id="97" x1="0%" y1="0%" x2="100%" y2="0%"><stop offset="0%" stop-color="#f9d423"></stop> <stop offset="100%" stop-color="#e14fad"></stop></linearGradient><linearGradient id="98" x1="0%" y1="0%" x2="100%" y2="0%"><stop offset="0%" stop-color="#009efd"></stop> <stop offset="100%" stop-color="#2af598"></stop></linearGradient><linearGradient id="99" x1="0%" y1="0%" x2="100%" y2="0%"><stop offset="0%" stop-color="#ffcc00"></stop> <stop offset="100%" stop-color="#00b140"></stop></linearGradient><linearGradient id="100" x1="0%" y1="0%" x2="100%" y2="0%"><stop offset="0%" stop-color="#d51007"></stop> <stop offset="100%" stop-color="#ff8177"></stop></linearGradient><linearGradient id="102" x1="0%" y1="0%" x2="100%" y2="0%"><stop offset="0%" stop-color="#a2b6df"></stop> <stop offset="100%" stop-color="#0c3483"></stop></linearGradient><linearGradient id="103" x1="0%" y1="0%" x2="100%" y2="0%"><stop offset="0%" stop-color="#7ac5d8"></stop> <stop offset="100%" stop-color="#eea2a2"></stop></linearGradient><linearGradient id="104" x1="0%" y1="0%" x2="100%" y2="0%"><stop offset="0%" stop-color="#00ecbc"></stop> <stop offset="100%" stop-color="#007adf"></stop></linearGradient><linearGradient id="105" x1="0%" y1="0%" x2="100%" y2="0%"><stop offset="0%" stop-color="#b88746"></stop> <stop offset="100%" stop-color="#fdf5a6"></stop></linearGradient></defs><g class="imagesvg isNoFont" transform="translate(140,95.91162872314453)"><g mask="url(#73df0690-ca55-4cd9-a556-3651bbed08ea)"><rect fill="#333" fill-opacity="0" stroke-width="2" x="0" y="0" width="60" height="58.1767409389726" class="image-rect"></rect> <svg x="0" y="0" width="60" height="58.1767409389726" filtersec="colorsb2880768828" class="image-svg-svg primary" style="overflow: visible;"><svg xmlns="http://www.w3.org/2000/svg" viewBox="0.013973705470561981 -0.000003815322543232469 127.88602447509766 124.00000762939453"><g fill-rule="evenodd"><path d="M40.53 0l84.36.06L84.94 81H40.47a40.5 40.5 0 0 1 .06-81z" fill="#fe025f" opacity=".8"></path><path d="M87.31 124H2.94l40-81H87.4a40.5 40.5 0 0 1 0 81z" fill="#06005c" opacity=".8"></path><path d="M87.36 43a40.58 40.58 0 0 1 14.92 2.85L84.94 81H40.47a40.22 40.22 0 0 1-14.92-2.85L42.9 43z" fill="#06005c"></path></g></svg><rect v-gra="id" width="71.99993515014648" height="70.17674255371094" transform="translate(-6, -6)" style="pointer-events:none;" fill="url(#MzT9xGFKbTnpg1lrmBrZ7)"></rect></svg> </g></g><defs v-gra="od"></defs><defs v-gra="id"><filter id="f6486866-2455-4a7f-ac83-2423f8dedf6a" filterUnits="userSpaceOnUse"><feColorMatrix type="matrix" values="0 0 0 0 0.99609375  0 0 0 0 0.99609375  0 0 0 0 0.99609375  0 0 0 1 0"></feColorMatrix></filter><linearGradient x1="0" y1="1" x2="0" y2="0" id="MzT9xGFKbTnpg1lrmBrZ7"><stop offset="0%" stop-color="#57ec99"></stop><stop offset="33.33%" stop-color="#1371ef"></stop><stop offset="66.67%" stop-color="#fc1cd5"></stop><stop offset="100%" stop-color="#fccc05"></stop></linearGradient><filter id="42443b3f1de60f6b6fd3b6a9844b4764" filterUnits="objectBoundingBox"><feColorMatrix type="matrix" values="0 0 0 0 0.99609375  0 0 0 0 0.99609375  0 0 0 0 0.99609375  0 0 0 1 0"></feColorMatrix></filter></defs><mask v-gra="im" id="73df0690-ca55-4cd9-a556-3651bbed08ea"><svg x="0" y="0" width="60" height="58.1767409389726" filtersec="colorsb2880768828" class="image-svg-svg primary" style="overflow: visible;" filter="url(#f6486866-2455-4a7f-ac83-2423f8dedf6a)"><svg xmlns="http://www.w3.org/2000/svg" viewBox="0.013973705470561981 -0.000003815322543232469 127.88602447509766 124.00000762939453"><g fill-rule="evenodd"><path d="M40.53 0l84.36.06L84.94 81H40.47a40.5 40.5 0 0 1 .06-81z" fill="#fe025f" opacity=".8"></path><path d="M87.31 124H2.94l40-81H87.4a40.5 40.5 0 0 1 0 81z" fill="#06005c" opacity=".8"></path><path d="M87.36 43a40.58 40.58 0 0 1 14.92 2.85L84.94 81H40.47a40.22 40.22 0 0 1-14.92-2.85L42.9 43z" fill="#06005c"></path></g></svg></svg></mask></g></svg>